<svg width="35" height="35" viewBox="0 0 35 35" fill="none" xmlns="http://www.w3.org/2000/svg">
<path id="Vector" d="M0 1.64062C0 0.731445 0.655734 0 1.47081 0H4.25921C5.60745 0 6.80248 0.875 7.36016 2.1875H32.5477C34.1595 2.1875 35.3361 3.89648 34.9133 5.63281L32.4006 16.0439C31.8797 18.1904 30.1331 19.6875 28.1414 19.6875H10.4611L10.792 21.6357C10.9269 22.4082 11.5336 22.9687 12.2383 22.9687H29.9064C30.7215 22.9687 31.3772 23.7002 31.3772 24.6094C31.3772 25.5186 30.7215 26.25 29.9064 26.25H12.2383C10.1179 26.25 8.2978 24.5684 7.90558 22.251L4.74335 3.72559C4.70045 3.46582 4.49821 3.28125 4.25921 3.28125H1.47081C0.655734 3.28125 0 2.5498 0 1.64062ZM7.8443 31.7187C7.8443 31.2878 7.92038 30.8612 8.06821 30.4631C8.21604 30.065 8.43272 29.7032 8.70588 29.3986C8.97903 29.0939 9.30331 28.8522 9.6602 28.6873C10.0171 28.5224 10.3996 28.4375 10.7859 28.4375C11.1722 28.4375 11.5547 28.5224 11.9116 28.6873C12.2685 28.8522 12.5928 29.0939 12.8659 29.3986C13.1391 29.7032 13.3558 30.065 13.5036 30.4631C13.6514 30.8612 13.7275 31.2878 13.7275 31.7187C13.7275 32.1496 13.6514 32.5763 13.5036 32.9744C13.3558 33.3725 13.1391 33.7343 12.8659 34.0389C12.5928 34.3436 12.2685 34.5853 11.9116 34.7502C11.5547 34.9151 11.1722 35 10.7859 35C10.3996 35 10.0171 34.9151 9.6602 34.7502C9.30331 34.5853 8.97903 34.3436 8.70588 34.0389C8.43272 33.7343 8.21604 33.3725 8.06821 32.9744C7.92038 32.5763 7.8443 32.1496 7.8443 31.7187ZM28.4356 28.4375C29.2157 28.4375 29.964 28.7832 30.5156 29.3986C31.0673 30.0139 31.3772 30.8485 31.3772 31.7187C31.3772 32.589 31.0673 33.4236 30.5156 34.0389C29.964 34.6543 29.2157 35 28.4356 35C27.6554 35 26.9072 34.6543 26.3555 34.0389C25.8039 33.4236 25.494 32.589 25.494 31.7187C25.494 30.8485 25.8039 30.0139 26.3555 29.3986C26.9072 28.7832 27.6554 28.4375 28.4356 28.4375Z" fill="#161D6F"/>
</svg>
